# xmcd
#
# Track frame offsets:
#	150
#	20744
#	38806
#	49608
#	65762
#	78352
#	93899
#	110472
#	123830
#	135127
#	148029
#	162110
#	174140
#	191305
#	204691
#	215788
#	224260
#	238945
#	255916
#
# Disc length: 3658 seconds
#
# Revision: 0
# Processed by: cddbd v1.5.2PL0 Copyright (c) Steve Scherf et al.
# Submitted via: EasyCDDAExtractor 4.6.0.1
#
DISCID=050e4813
DTITLE=Various Artist - Rose Valley CD 29
DYEAR=1900
DGENRE=Country
TTITLE0=Alan Jackson - Remember When
TTITLE1=Dixie Chicks - Irish Medley
TTITLE2=Joe Nichols - What's A Guy Gotta Do
TTITLE3=Lorrie Morgan - Five Minutes
TTITLE4=Curtis Grambo - I'm Gonna Knock On Your Door
TTITLE5=Blake Shelton - Some Beach
TTITLE6=Darryl Worley - I Need A Breather
TTITLE7=Eddy Raven - Too Much Candy For A Dime
TTITLE8=Heather Myles - Lovin' The Bottle
TTITLE9=Vince Gill -Old Time Fiddle
TTITLE10=Heather Myles - Just Like Old Times
TTITLE11=Carlene Carter - You Are The One
TTITLE12=Fredrik Kempe - Vincero
TTITLE13=Jamie O'Neal - I Love My Life
TTITLE14=Billy Yates - Me Marie
TTITLE15=Elvis Presley - I Got Stung
TTITLE16=Alan Jackson - There Ya Go
TTITLE17=Redfern and Crookes - Madelaina
TTITLE18=Brian Gowan - Only One Reason
EXTD=
EXTT0=
EXTT1=
EXTT2=
EXTT3=
EXTT4=
EXTT5=
EXTT6=
EXTT7=
EXTT8=
EXTT9=
EXTT10=
EXTT11=
EXTT12=
EXTT13=
EXTT14=
EXTT15=
EXTT16=
EXTT17=
EXTT18=
PLAYORDER=
